PathFileType	4	(X/Y/Z)	C:/Users/beibeiliu/ov580/test_trc/capture2\sequence.19_training_dense_right.trc
DataRate	CameraRate	NumFrames	NumMarkers	Units	OrigDataRate	OrigDataStartFrame	OrigNumFrames
120	120	18	19	mm	120	1	351
Frame#	Time	ThumbCMC			ThumbMCP			ThumbIP			ThumbTip			IndexMCP			IndexPIP			IndexTip			MiddleMCP			MiddlePIP			MiddleTip			RingMCP			RingPIP			RingTip			PinkyMCP			PinkyPIP			PinkyTip			BackHand1			BackHand2			BackHand3	
		X0	Y0	Z0	X1	Y1	Z1	X2	Y2	Z2	X3	Y3	Z3	X4	Y4	Z4	X5	Y5	Z5	X6	Y6	Z6	X7	Y7	Z7	X8	Y8	Z8	X9	Y9	Z9	X10	Y10	Z10	X11	Y11	Z11	X12	Y12	Z12	X13	Y13	Z13	X14	Y14	Z14	X15	Y15	Z15	X16	Y16	Z16	X17	Y17	Z17	X18	Y18	Z18	
0	0	124.653	45.7914	22.1665	99.8419	33.6037	8.54138	82.0619	27.5969	-10.9585	67.5512	23.4264	-25.9326	133.001	53.4541	-51.7375	126.421	50.0361	-79.0493	121.561	51.87	-98.8792	162.038	50.8554	-58.807	159.173	46.4808	-84.519	163.546	41.4645	-113.012	179.77	42.2442	-55.0494	183.344	37.5138	-79.4505	189.117	33.954	-105.332	198.807	32.3353	-41.8094	208.525	26.5367	-60.1034	221.47	27.3465	-76.7539	180.726	56.4857	-6.28369	180.905	63.8172	24.1754	150.425	65.3953	9.28318	
1	0.00833333	121.341	47.0805	17.1982	103.302	34.6244	8.40118	82.6454	29.1388	-13.1865	65.249	25.415	-22.6755	132.363	53.6194	-52.2118	123.898	52.0412	-78.5551	124.288	51.2705	-103.496	157.709	51.8912	-58.2595	157.947	46.6098	-88.8485	162.456	42.0166	-115.324	176.875	43.9522	-57.5653	186.805	38.0315	-76.4916	186.879	34.7044	-105.362	197.29	33.1864	-41.2237	208.47	27.6451	-61.396	217.847	27.8236	-81.9486	179.68	57.0617	-6.41023	180.353	63.8443	23.5211	149.18	67.4278	5.65135	
2	0.0166667	120.481	49.9808	22.2527	102.611	36.2912	5.56857	81.3483	31.7513	-12.6254	67.3286	27.8439	-26.3076	132.449	54.9792	-53.1084	123.378	52.7857	-75.0522	124.886	51.8046	-100.625	157.662	52.7934	-63.6311	157.318	47.576	-88.5879	162.327	41.6943	-116.778	179.533	44.9777	-56.0926	182.514	39.8679	-76.7777	187.166	34.9035	-104.155	197.56	35.7196	-42.7243	207.377	28.0232	-58.9627	217.105	29.1013	-77.9753	180.444	58.5928	-7.68786	183.243	65.5589	20.4979	151.198	69.516	6.79516	
3	0.025	119.009	51.3251	19.0953	100.326	38.9798	8.33998	81.4697	33.1634	-14.6391	64.8615	28.8537	-26.8256	130.348	56.3152	-51.3708	122.544	52.7916	-79.5217	125.261	52.1233	-102.554	161.466	53.4384	-61.6547	161.034	47.296	-89.7059	164.166	40.9289	-114.942	177.918	47.0239	-58.0701	183.83	40.8817	-80.9756	185.49	35.5141	-105.08	197.047	36.4356	-41.6271	205.42	29.1948	-57.4785	219.456	29.465	-81.2149	177.776	61.7197	-8.22086	181.469	65.0928	23.2432	147.242	69.7367	3.16546	
4	0.0333333	117.724	51.8088	17.3122	100.903	38.4717	6.73272	81.1327	33.1004	-13.4058	65.2535	27.6531	-28.3339	131.456	56.0017	-55.749	122.851	53.3142	-76.8747	125.407	50.6748	-102.302	156.913	53.9824	-58.7622	158.933	46.3754	-89.8763	161.164	41.5015	-113.811	177.131	45.5509	-53.292	181.033	40.2519	-81.8949	185.98	35.7343	-106.892	197.91	34.99	-38.8918	207.11	29.2681	-62.0657	219.322	27.9823	-81.6737	178.332	60.4723	-5.19332	184.392	66.0855	22.5813	152.594	68.9772	6.5276	
5	0.0416667	118.633	49.3535	16.0501	103.039	35.9728	5.54799	84.3656	30.6922	-9.87938	67.7966	26.1013	-25.6976	129.293	53.7828	-53.9467	127.116	50.1592	-80.1511	119.603	49.8977	-104.593	159.951	51.6062	-59.0809	161.992	45.5109	-86.5361	161.128	39.6779	-112.261	176.956	44.1466	-56.9157	184.78	38.7765	-78.5472	184.321	33.3812	-102.943	200.427	33.0454	-41.9918	205.087	28.0662	-58.8676	221.994	28.0453	-81.791	182.877	56.9653	-7.88213	181.85	63.3518	19.804	152.601	66.8673	2.38412	
6	0.05	121.47	47.7135	16.763	100.495	36.6214	7.36448	79.7928	31.0761	-11.4358	65.0033	25.7246	-23.4177	131.097	52.7478	-54.4952	122.47	49.8589	-79.7271	125.573	47.6754	-104.21	157.796	51.4992	-60.456	160.019	44.5428	-86.7007	162.273	37.9548	-114.249	181.56	43.0364	-56.6121	186.201	37.1843	-78.675	188.296	32.0596	-102.798	197.74	32.6265	-39.8474	209.928	25.2636	-60.0058	222.444	26.0261	-82.1258	179.99	58.3484	-5.38983	180.027	63.1076	22.0073	150.778	66.0062	3.09818	
7	0.0583333	121.349	48.0424	21.333	101.631	35.9152	7.04354	82.1712	30.5665	-10.6869	65.3136	26.4019	-25.205	129.931	53.2402	-54.2744	125.999	48.0052	-81.4949	123.552	47.6846	-106.038	160.651	49.1329	-61.8293	160.998	42.6936	-87.8584	166.006	35.5834	-117.737	182.793	40.7152	-56.8642	187.899	35.2885	-79.4281	186.298	31.8322	-102.507	198.592	31.9206	-38.0697	206.923	25.4652	-57.0558	223.189	25.8685	-78.6601	180.363	57.9718	-9.54393	181.797	63.2084	24.0016	149.627	67.0753	6.23723	
8	0.0666667	124.466	46.8125	16.9756	102.604	35.7988	8.02503	85.6518	30.7678	-9.25833	67.6795	26.6031	-22.8932	133.086	52.5917	-54.8458	126.44	50.0266	-78.9102	127.123	48.1947	-100.844	162.42	49.3115	-59.6278	162.817	41.6446	-89.0448	163.768	36.4199	-110.868	180.415	41.8088	-52.2363	185.279	35.2113	-75.8677	189.012	30.379	-104.387	200.982	30.8775	-38.6901	207.172	24.0716	-59.2162	223.468	22.2374	-75.3192	185.818	56.4157	-6.83041	186.155	60.6091	22.0606	154.436	65.2413	8.14987	
9	0.075	123.995	49.9516	22.768	103.175	36.7954	8.3288	85.3606	33.3563	-8.37616	67.9319	29.8799	-24.4211	136.929	54.9024	-53.9318	127.109	52.2187	-74.2362	127.358	50.0682	-102.589	160.621	51.354	-61.4003	163.208	43.1965	-87.7916	163.594	38.853	-110.836	182.486	41.8444	-51.5532	185.017	35.7101	-75.2003	187.73	30.5547	-102.013	203.745	29.7655	-37.8053	208.79	23.7287	-57.8966	219.909	23.825	-78.023	182.01	54.9072	-3.09129	187.537	58.9336	22.1694	158.521	67.1373	9.81943	
10	0.0833333	127.969	51.5654	19.6108	102.293	41.5281	6.71413	83.1735	37.0896	-9.21153	69.2383	33.0912	-26.4809	137.424	58.5926	-49.5838	128.702	55.8499	-78.0711	132.983	54.0045	-100.24	164.631	51.8309	-60.0444	167.249	45.943	-83.7819	166.873	39.8553	-110.906	185.347	41.9826	-55.0235	187.557	36.5004	-76.0646	188.914	30.9656	-101.863	204.592	28.2984	-38.0565	208.594	22.8528	-58.2728	221.474	21.3795	-81.6233	184.465	55.596	-1.19806	188.934	60.7384	26.3118	159.478	66.1318	10.9328	
11	0.0916667	128.242	53.8055	24.6711	108.759	43.7186	7.61368	85.1602	41.6106	-13.2672	68.2968	39.6864	-27.9634	137.388	62.1134	-51.2043	133.329	59.9388	-77.2924	132.344	58.2098	-102.373	163.611	55.6277	-56.2419	166.823	49.4472	-85.2352	164.606	44.4265	-111.71	185.501	43.8592	-54.0042	188.836	36.9799	-75.7333	187.652	31.5348	-103.985	201.041	30.2491	-42.4199	210.132	21.8323	-61.2001	221.458	17.5561	-80.4799	188.145	55.1376	-5.84077	189.853	59.1942	25.4022	157.672	68.3714	7.72124	
12	0.1	127.586	57.5782	24.7152	108.444	48.117	8.23598	88.7146	46.9018	-8.08212	72.3838	46.6844	-24.4393	139.421	67.5465	-52.0949	136.406	64.3625	-76.0998	132.955	64.0945	-96.9407	165.485	59.0469	-60.0543	169.429	50.4709	-86.68	167.9	45.0992	-111.331	185.168	45.0326	-54.5739	190.413	37.0649	-78.5986	186.496	34.0083	-103.479	203.657	29.6121	-40.863	207.556	22.0526	-60.3678	216.706	16.1807	-82.2334	188.784	57.5411	-3.56292	191.102	57.3601	25.727	161.488	71.7207	12.5853	
13	0.108333	132.474	58.9428	22.5624	107.857	52.4693	9.14594	90.4033	53.0436	-9.15396	73.4738	53.0201	-22.0678	145.735	69.2871	-48.2022	140.675	69.3198	-74.617	137.141	69.58	-101.44	171.965	59.7463	-54.105	171.015	55.0496	-81.7042	169.413	47.9102	-112.864	188.656	44.8889	-54.322	185.636	41.0071	-75.7462	188.127	34.1372	-99.3931	203.611	28.5679	-36.6808	207.635	19.7352	-61.3448	212.541	15.8581	-80.468	189.761	56.3273	0.920039	193.101	56.5047	25.9617	163.627	73.2323	14.4394	
14	0.116667	132.241	61.7699	24.9465	106.794	57.4189	14.0222	90.3437	58.3901	-6.3797	71.9544	60.7322	-24.7733	146.269	76.0883	-48.7423	142.746	73.991	-74.5179	139.058	75.3168	-96.3282	169.381	63.8656	-53.9453	172.385	57.687	-79.2094	168.372	51.7318	-110.006	189.382	46.0361	-51.1909	188.245	41.8067	-78.1434	184.82	36.2443	-103.481	200.853	29.169	-36.7641	207.491	20.3397	-57.7768	210.073	14.3619	-84.9728	193.882	53.4905	1.11759	193.389	55.9369	29.9367	166.165	71.6023	13.2843	
15	0.125	133.018	64.852	27.5764	110.205	59.0569	14.6853	90.9903	62.9037	-2.78364	76.1861	64.8073	-19.1258	148.704	80.5602	-44.155	142.642	80.6662	-70.7848	140.479	81.7617	-93.3446	172.194	66.3304	-53.3718	169.007	63.2115	-80.8565	166.407	57.5375	-106.222	185.757	51.4956	-50.311	190.229	43.9819	-72.6491	184.235	38.9173	-101.019	200.489	30.6531	-37.0084	203.115	22.9869	-59.277	203.67	18.1249	-85.1305	197.126	52.9139	4.31107	198.723	52.1451	29.8012	169.533	71.2639	20.0827	
16	0.133333	137.851	63.4398	31.0768	110.683	62.9932	16.849	94.3824	67.0554	-4.77923	77.5433	71.0117	-19.1947	152.515	85.618	-40.4921	145.636	88.0751	-64.8295	146.149	85.9523	-92.1514	173.996	71.4045	-46.3711	170.538	68.3612	-74.8169	168.704	59.3565	-102.421	186.572	53.7111	-43.3938	185.6	49.3788	-73.7453	178.533	45.3512	-100.221	199.318	32.659	-33.9627	196.819	28.8169	-62.4584	194.886	24.9092	-87.5832	197.008	53.0921	7.76182	199.921	48.7813	35.9017	173.059	69.9565	24.8119	
17	0.141667	138.228	67.4906	34.0343	114.586	65.085	16.2496	95.0424	72.3693	2.83077	81.8078	77.3758	-13.5152	159.128	89.8434	-36.0266	152.729	93.4156	-60.8452	148.799	92.4409	-84.7524	178.147	74.4928	-45.5676	172.515	73.4983	-74.6961	162.506	69.6819	-100.49	187.304	59.6205	-43.7414	185.378	54.0725	-73.9388	173.706	53.3921	-95.3285	196.58	38.756	-36.8258	193.815	35.3499	-62.7894	192.041	31.5532	-86.8424	199.615	51.0335	9.47276	200.822	44.5799	39.5284	174.259	71.4256	29.1355	
